<?xml version="1.0" encoding="utf-8"?>
<!-- Generator: Adobe Illustrator 18.1.1, SVG Export Plug-In . SVG Version: 6.00 Build 0)  -->
<!DOCTYPE svg PUBLIC "-//W3C//DTD SVG 1.1//EN" "http://www.w3.org/Graphics/SVG/1.1/DTD/svg11.dtd">
<svg version="1.1" id="Email_w_x2F__circle" xmlns="http://www.w3.org/2000/svg" xmlns:xlink="http://www.w3.org/1999/xlink" x="0px" y="0px"
	 viewBox="0 0 20 20" enable-background="new 0 0 20 20" xml:space="preserve">
  <path fill="#FFFFFF" d="M 10 0.40039062 C 4.698 0.40039062 0.40039062 4.698 0.40039062 10 C 0.40039062 15.302 4.698 19.599609 10 19.599609 C 15.302 19.599609 19.599609 15.302 19.599609 10 C 19.599609 4.698 15.302 0.40039063 10 0.40039062 z M 10.1875 5.3066406 C 13.135809 5.3066406 14.699219 7.0691587 14.699219 9.2304688 C 14.699219 11.062884 14.123375 12.460938 12.314453 12.460938 C 11.491726 12.460938 10.951337 12.131101 10.880859 11.402344 C 10.669427 12.212835 10.105793 12.460938 9.3417969 12.460938 C 8.319873 12.460938 7.4628906 11.673145 7.4628906 10.087891 C 7.4628906 8.4904004 8.2155874 7.5039062 9.5664062 7.5039062 C 10.282928 7.5039062 10.729026 7.7860644 10.927734 8.2324219 L 11.269531 7.609375 L 12.255859 7.609375 L 12.255859 11.064453 C 12.255859 11.475572 12.373796 11.638672 12.679688 11.638672 C 13.36146 11.638672 13.794922 10.769008 13.794922 9.3242188 C 13.794922 7.1159238 12.18488 6.0605469 10.175781 6.0605469 C 8.1089309 6.0605469 6.2304688 7.445039 6.2304688 10.064453 C 6.2304688 12.566404 7.8749469 13.929687 10.400391 13.929688 C 11.257867 13.929688 11.832412 13.834672 12.712891 13.541016 L 12.902344 14.328125 C 12.033122 14.610525 11.104704 14.693359 10.388672 14.693359 C 7.0762292 14.693359 5.3007813 12.871806 5.3007812 10.064453 C 5.3007812 7.2336061 7.3566533 5.3066406 10.1875 5.3066406 z M 9.9296875 8.5976562 C 9.4950763 8.5976562 9.015625 8.9482625 9.015625 9.9824219 C 9.015625 10.80466 9.3781032 11.263672 9.9296875 11.263672 C 10.317314 11.263672 10.8125 11.01722 10.8125 10.335938 L 10.8125 9.5136719 C 10.8125 8.8681176 10.32906 8.5976562 9.9296875 8.5976562 z " />
</svg>
