<?xml version="1.0" encoding="utf-8"?>
<!-- Generator: Adobe Illustrator 25.1.0, SVG Export Plug-In . SVG Version: 6.00 Build 0)  -->
<svg version="1.1"
	 id="Layer_1" xmlns:cc="http://creativecommons.org/ns#" xmlns:dc="http://purl.org/dc/elements/1.1/" xmlns:rdf="http://www.w3.org/1999/02/22-rdf-syntax-ns#"
	 xmlns="http://www.w3.org/2000/svg" xmlns:xlink="http://www.w3.org/1999/xlink" x="0px" y="0px" viewBox="0 0 40.5 40.5"
	 style="enable-background:new 0 0 40.5 40.5;" xml:space="preserve">
<style type="text/css">
	.st0{fill:#FFFFFF;}
</style>
<g transform="translate(0.00630876,-0.00301984)">
	<path class="st0" d="M35.4,16.3c0.6-4.3-2.6-6.5-7-8.1l1.4-5.8l-3.5-0.9l-1.4,5.6C24,7,23.1,6.7,22.1,6.5l1.4-5.7L20,0l-1.4,5.8
		c-0.8-0.2-1.5-0.3-2.2-0.5l0,0L11.5,4l-0.9,3.8c0,0,2.6,0.6,2.5,0.6c1.4,0.4,1.7,1.3,1.6,2L13.1,17c0.1,0,0.2,0.1,0.4,0.1
		c-0.1,0-0.2-0.1-0.4-0.1l-2.3,9.2c-0.2,0.4-0.6,1.1-1.6,0.8c0,0.1-2.6-0.6-2.6-0.6l-1.7,4l4.6,1.1c0.9,0.2,1.7,0.4,2.5,0.6
		l-1.5,5.8L14,39l1.4-5.8c1,0.3,1.9,0.5,2.8,0.7l-1.4,5.7l3.5,0.9l1.5-5.8c6,1.1,10.5,0.7,12.4-4.7c1.5-4.4-0.1-6.9-3.2-8.5
		C33.3,20.9,35,19.4,35.4,16.3z M27.4,27.5c-1.1,4.4-8.4,2-10.8,1.4l1.9-7.7C20.9,21.8,28.6,23,27.4,27.5z M28.5,16.2
		c-1,4-7.1,2-9.1,1.5l1.7-7C23.2,11.2,29.5,12.1,28.5,16.2z"/>
</g>
</svg>
