<?xml version="1.0" encoding="utf-8"?>
<!-- Generator: Adobe Illustrator 25.1.0, SVG Export Plug-In . SVG Version: 6.00 Build 0)  -->
<svg version="1.1"
	 id="svg3933" sodipodi:docname="Microsoft_Excel_Logo2.svg" xmlns:cc="http://creativecommons.org/ns#" xmlns:dc="http://purl.org/dc/elements/1.1/" xmlns:inkscape="http://www.inkscape.org/namespaces/inkscape" xmlns:rdf="http://www.w3.org/1999/02/22-rdf-syntax-ns#" xmlns:sodipodi="http://sodipodi.sourceforge.net/DTD/sodipodi-0.dtd" xmlns:svg="http://www.w3.org/2000/svg"
	 xmlns="http://www.w3.org/2000/svg" xmlns:xlink="http://www.w3.org/1999/xlink" x="0px" y="0px" viewBox="0 0 183.1 173.3"
	 style="enable-background:new 0 0 183.1 173.3;" xml:space="preserve">
<style type="text/css">
	.st0{fill:#FFFFFF;}
	.st1{fill:#1F7144;}
	.st2{fill:url(#path3945_1_);}
</style>
<sodipodi:namedview  bordercolor="#666666" borderopacity="1" gridtolerance="10" guidetolerance="10" id="namedview3937" inkscape:current-layer="svg3933" inkscape:cx="161.97994" inkscape:cy="298.46005" inkscape:pageopacity="0" inkscape:pageshadow="2" inkscape:window-height="987" inkscape:window-maximized="0" inkscape:window-width="1268" inkscape:window-x="723" inkscape:window-y="130" inkscape:zoom="1" objecttolerance="10" pagecolor="#ffffff" showgrid="false">
	</sodipodi:namedview>
<path id="rect4556" class="st0" d="M12.4,19h164.8c1.9,0,3.4,1.5,3.4,3.4v127.8c0,1.9-1.5,3.4-3.4,3.4H12.4c-1.9,0-3.4-1.5-3.4-3.4
	V22.3C9,20.5,10.5,19,12.4,19z"/>
<g id="use3985" transform="translate(0,87.031249)">
	<path id="rect3991" class="st1" d="M99.8,35.2h29.3v15H99.8V35.2z M135.1,35.2h29.3v15h-29.3V35.2z M99.8,13.4h29.3v15.7H99.8V13.4
		z M135.1,13.4h29.3v15.7h-29.3V13.4z M99.8-8.3h29.3V7.4H99.8V-8.3z M135.1-8.3h29.3V7.4h-29.3V-8.3z M99.8-30.1h29.3v15.7H99.8
		V-30.1z M135.1-30.1h29.3v15.7h-29.3V-30.1z M99.8-51.8h29.3v15.7H99.8V-51.8z M135.1-51.8h29.3v15.7h-29.3V-51.8z M98.8-69.8v6
		h78.3V62.9H98.8v6h77.8c3.6,0,6.5-2.9,6.5-6.5V-63.3c0-3.6-2.9-6.5-6.5-6.5H98.8z"/>
</g>
<radialGradient id="path3945_1_" cx="-26.0457" cy="281.4338" r="52.1875" gradientTransform="matrix(1.2948 0 0 -2.4874 33.9169 786.7073)" gradientUnits="userSpaceOnUse">
	<stop  offset="0" style="stop-color:#237F4C"/>
	<stop  offset="1" style="stop-color:#1E6C41"/>
</radialGradient>
<path id="path3945" class="st2" d="M104.4,0L0,18.6v135.9l104.3,18.8L104.4,0z M71,55.9L56.1,86.7l15.3,30.9l-13.9-0.8l-9.1-22.6
	l-8.9,21.6L27.3,115l14.3-28.4L28,58l13.2-0.6l7.7,20.9l9.3-21.7L71,55.9z"/>
<g id="g3973">
</g>
<g id="use3977" transform="translate(0,21.75)">
</g>
<g id="use3981" transform="translate(0,43.5)">
</g>
<g id="use3983" transform="translate(0,65.249999)">
</g>
</svg>
